<svg width="38" height="28" viewBox="0 0 38 28" fill="none" xmlns="http://www.w3.org/2000/svg">
<path d="M6.51989 20.2628C5.26705 20.2628 4.15057 20.0455 3.17045 19.6108C2.19034 19.1676 1.41477 18.5156 0.84375 17.6548C0.28125 16.7855 -7.45058e-08 15.7031 -7.45058e-08 14.4077C-7.45058e-08 13.3168 0.200284 12.4006 0.600852 11.6591C1.00142 10.9176 1.54687 10.321 2.23722 9.86932C2.92756 9.41761 3.71165 9.0767 4.58949 8.84659C5.47585 8.61648 6.40483 8.45455 7.37642 8.3608C8.51847 8.24148 9.43892 8.13068 10.1378 8.02841C10.8366 7.91761 11.3438 7.75568 11.6591 7.54261C11.9744 7.32955 12.1321 7.0142 12.1321 6.59659V6.51989C12.1321 5.71023 11.8764 5.08381 11.3651 4.64062C10.8622 4.19744 10.1463 3.97585 9.21733 3.97585C8.23722 3.97585 7.45739 4.19318 6.87784 4.62784C6.2983 5.05398 5.91477 5.59091 5.72727 6.23864L0.690341 5.82955C0.946023 4.63636 1.44886 3.60511 2.19886 2.7358C2.94886 1.85795 3.91619 1.18466 5.10085 0.715908C6.29403 0.238636 7.67472 7.15256e-07 9.2429 7.15256e-07C10.3338 7.15256e-07 11.3778 0.127841 12.375 0.383522C13.3807 0.639205 14.2713 1.03551 15.0469 1.57244C15.831 2.10938 16.4489 2.79972 16.9006 3.64347C17.3523 4.47869 17.5781 5.48011 17.5781 6.64773V19.892H12.4134V17.169H12.2599C11.9446 17.7827 11.5227 18.3239 10.9943 18.7926C10.4659 19.2528 9.83097 19.6151 9.08949 19.8793C8.34801 20.1349 7.49148 20.2628 6.51989 20.2628ZM8.07955 16.5043C8.88068 16.5043 9.58807 16.3466 10.2017 16.0313C10.8153 15.7074 11.2969 15.2727 11.6463 14.7273C11.9957 14.1818 12.1705 13.5639 12.1705 12.8736V10.7898C12 10.9006 11.7656 11.0028 11.4673 11.0966C11.1776 11.1818 10.8494 11.2628 10.483 11.3395C10.1165 11.4077 9.75 11.4716 9.38352 11.5313C9.01705 11.5824 8.68466 11.6293 8.38636 11.6719C7.74716 11.7656 7.18892 11.9148 6.71165 12.1193C6.23438 12.3239 5.86364 12.6009 5.59943 12.9503C5.33523 13.2912 5.20313 13.7173 5.20313 14.2287C5.20313 14.9702 5.47159 15.5369 6.00852 15.929C6.55398 16.3125 7.24432 16.5043 8.07955 16.5043ZM27.4099 27.6648C25.6457 27.6648 24.1329 27.4219 22.8715 26.9361C21.6187 26.4588 20.6215 25.8068 19.88 24.9801C19.1386 24.1534 18.657 23.2244 18.4354 22.1932L23.4724 21.5156C23.6258 21.9077 23.8687 22.2741 24.2011 22.6151C24.5334 22.956 24.9724 23.2287 25.5178 23.4332C26.0718 23.6463 26.7451 23.7528 27.5377 23.7528C28.7224 23.7528 29.6982 23.4631 30.4653 22.8835C31.2408 22.3125 31.6286 21.3537 31.6286 20.0071V16.4148H31.3985C31.1599 16.9602 30.8019 17.4759 30.3246 17.9616C29.8474 18.4474 29.2337 18.8438 28.4837 19.1506C27.7337 19.4574 26.8388 19.6108 25.7991 19.6108C24.3246 19.6108 22.9823 19.2699 21.7721 18.5881C20.5704 17.8977 19.6116 16.8452 18.8957 15.4304C18.1883 14.0071 17.8346 12.2088 17.8346 10.0355C17.8346 7.81108 18.1968 5.95312 18.9212 4.46165C19.6457 2.97017 20.6087 1.85369 21.8104 1.11222C23.0207 0.370739 24.3459 7.15256e-07 25.7863 7.15256e-07C26.8857 7.15256e-07 27.8062 0.187501 28.5476 0.562501C29.2891 0.928978 29.8857 1.3892 30.3374 1.94318C30.7976 2.48864 31.1513 3.02557 31.3985 3.55398H31.603V0.255682H37.0107V20.0838C37.0107 21.7543 36.6016 23.152 35.7834 24.277C34.9653 25.402 33.8317 26.2457 32.3829 26.8082C30.9425 27.3793 29.2849 27.6648 27.4099 27.6648ZM27.5249 15.5199C28.4028 15.5199 29.1442 15.3026 29.7493 14.8679C30.363 14.4247 30.8317 13.794 31.1556 12.9759C31.488 12.1491 31.6542 11.1605 31.6542 10.0099C31.6542 8.85938 31.4922 7.86222 31.1684 7.01847C30.8445 6.16619 30.3758 5.50568 29.7621 5.03693C29.1485 4.56818 28.4028 4.33381 27.5249 4.33381C26.63 4.33381 25.8758 4.5767 25.2621 5.0625C24.6485 5.53977 24.184 6.20455 23.8687 7.05682C23.5533 7.90909 23.3957 8.89347 23.3957 10.0099C23.3957 11.1435 23.5533 12.1236 23.8687 12.9503C24.1925 13.7685 24.657 14.4034 25.2621 14.8551C25.8758 15.2983 26.63 15.5199 27.5249 15.5199Z" fill="white"/>
</svg>
